<svg width="608" height="820" viewBox="0 0 608 820" fill="none" xmlns="http://www.w3.org/2000/svg">
<path d="M265.091 299.626C166.598 296.658 84.0626 374.365 81.0944 472.857C78.1263 571.35 155.833 653.886 254.326 656.854C352.819 659.822 435.354 582.116 438.322 483.623C441.291 385.13 363.584 302.594 265.091 299.626ZM361.005 506.832L258.939 503.756C244.854 503.332 233.768 491.556 234.192 477.471L237.268 375.406C237.692 361.321 249.468 350.234 263.553 350.659C277.638 351.083 288.725 362.859 288.3 376.944L285.994 453.493L362.542 455.8C376.627 456.224 387.714 468 387.29 482.085C386.865 496.17 375.09 507.257 361.005 506.832Z" fill="white" fill-opacity="0.03"/>
<path d="M351.738 -33.1805C352.163 -47.2655 341.076 -59.0413 326.991 -59.4658C267.895 -61.2467 242.368 15.7602 222.161 71.5764C208.028 110.6 186.671 169.566 166.87 168.969C151.424 168.504 142.806 122.852 143.661 91.6514C144.367 68.2105 115.61 56.3279 99.5508 73.398C16.1217 162.111 -67.5085 319.076 -72.0037 468.244C-77.471 649.665 65.5011 804.401 249.712 809.952C432.612 815.464 585.908 671.137 591.42 488.237C597.849 274.887 347.542 106.053 351.738 -33.1805ZM252.787 707.887C126.159 704.071 26.2454 597.949 30.0614 471.32C33.8774 344.691 140 244.778 266.628 248.594C393.257 252.41 493.17 358.532 489.354 485.161C485.538 611.79 379.416 711.703 252.787 707.887Z" fill="white" fill-opacity="0.03"/>
</svg>
