<svg width="30" height="30" viewBox="0 0 30 30" fill="none" xmlns="http://www.w3.org/2000/svg">
<g clip-path="url(#clip0)">
<path d="M15 30C23.2843 30 30 23.2843 30 15C30 6.71573 23.2843 0 15 0C6.71573 0 0 6.71573 0 15C0 23.2843 6.71573 30 15 30Z" fill="#1977F3"/>
<path d="M20.8397 19.3385L21.5041 15.0015H17.3444V12.1876C17.3444 11.0021 17.9244 9.84404 19.7892 9.84404H21.6813V6.15258C21.6813 6.15258 19.9642 5.85938 18.3231 5.85938C14.8974 5.85938 12.6573 7.93503 12.6573 11.6961V15.0015H8.84766V19.3385H12.6573V29.8201C13.4209 29.9403 14.2034 30.0015 15.0008 30.0015C15.7982 30.0015 16.5808 29.9382 17.3444 29.8201V19.3385H20.8397Z" fill="white"/>
</g>
<defs>
<clipPath id="clip0">
<rect width="30" height="30" fill="white"/>
</clipPath>
</defs>
</svg>
