<svg width="29" height="30" viewBox="0 0 29 30" fill="none" xmlns="http://www.w3.org/2000/svg">
<g clip-path="url(#clip0)">
<path d="M28.9504 15.2807C28.9504 14.0516 28.8519 13.1547 28.6386 12.2246H14.7715V17.7721H22.9112C22.7471 19.1507 21.861 21.2269 19.8916 22.622L19.864 22.8077L24.2486 26.2455L24.5523 26.2762C27.3421 23.6685 28.9504 19.8317 28.9504 15.2807Z" fill="#4285F4"/>
<path d="M14.771 29.8973C18.7588 29.8973 22.1066 28.5685 24.5519 26.2764L19.8912 22.6223C18.644 23.5026 16.97 24.1171 14.771 24.1171C10.8653 24.1171 7.5503 21.5095 6.36861 17.9053L6.1954 17.9202L1.63628 21.4912L1.57666 21.6589C4.00544 26.5421 8.99436 29.8973 14.771 29.8973Z" fill="#34A853"/>
<path d="M6.36881 17.9045C6.05701 16.9744 5.87656 15.9778 5.87656 14.948C5.87656 13.9182 6.05701 12.9216 6.3524 11.9915L6.34415 11.7934L1.7279 8.16504L1.57687 8.23775C0.575851 10.2641 0.00146484 12.5397 0.00146484 14.948C0.00146484 17.3564 0.575851 19.6318 1.57687 21.6582L6.36881 17.9045Z" fill="#FBBC05"/>
<path d="M14.771 5.78004C17.5444 5.78004 19.4152 6.99252 20.482 8.00576L24.6503 3.8866C22.0903 1.47824 18.7588 0 14.771 0C8.99435 0 4.00544 3.35508 1.57666 8.2382L6.3522 11.992C7.5503 8.38775 10.8653 5.78004 14.771 5.78004Z" fill="#EB4335"/>
</g>
<defs>
<clipPath id="clip0">
<rect width="28.9655" height="30" fill="white"/>
</clipPath>
</defs>
</svg>
