<svg id="Camada_1" data-name="Camada 1" xmlns="http://www.w3.org/2000/svg" xmlns:xlink="http://www.w3.org/1999/xlink" viewBox="0 0 504 391.38"><defs><linearGradient id="linear-gradient" y1="195.69" x2="504" y2="195.69" gradientUnits="userSpaceOnUse"><stop offset="0" stop-color="#5aba47"/><stop offset="0.03" stop-color="#189446"/><stop offset="1" stop-color="#393d36"/></linearGradient><linearGradient id="linear-gradient-2" x1="402.28" y1="49.25" x2="356.41" y2="49.25" gradientTransform="matrix(1, 0, 0, -1, -5.16, 333.38)" gradientUnits="userSpaceOnUse"><stop offset="0" stop-color="#0c6a37"/><stop offset="0.27" stop-color="#529773"/><stop offset="0.52" stop-color="#8cbca3"/><stop offset="0.73" stop-color="#b5d7c6"/><stop offset="0.9" stop-color="#cfe7dc"/><stop offset="1" stop-color="#d8ede4"/></linearGradient><linearGradient id="linear-gradient-3" x1="251.78" y1="277.72" x2="394.67" y2="277.72" gradientUnits="userSpaceOnUse"><stop offset="0" stop-color="#e7e44e"/><stop offset="0.21" stop-color="#e4d34a"/><stop offset="0.62" stop-color="#dba741"/><stop offset="1" stop-color="#d27a37"/></linearGradient><linearGradient id="linear-gradient-4" x1="457.91" y1="82.96" x2="347.82" y2="82.96" xlink:href="#linear-gradient-2"/><linearGradient id="linear-gradient-5" x1="298.54" y1="243.28" x2="441.43" y2="243.28" xlink:href="#linear-gradient-3"/><linearGradient id="linear-gradient-6" x1="298.33" y1="190.85" x2="487.52" y2="190.85" gradientUnits="userSpaceOnUse"><stop offset="0" stop-color="#d8ede4"/><stop offset="0.1" stop-color="#cfe7dc"/><stop offset="0.27" stop-color="#b5d7c6"/><stop offset="0.48" stop-color="#8cbca3"/><stop offset="0.73" stop-color="#529773"/><stop offset="1" stop-color="#0c6a37"/></linearGradient><linearGradient id="linear-gradient-7" x1="3075.89" y1="148.44" x2="2968.82" y2="148.44" gradientTransform="translate(3450 333.38) rotate(180)" gradientUnits="userSpaceOnUse"><stop offset="0" stop-color="#d27a37"/><stop offset="1" stop-color="#e7e44e"/></linearGradient><linearGradient id="linear-gradient-8" x1="499.42" y1="118" x2="339.32" y2="118" xlink:href="#linear-gradient-2"/><linearGradient id="linear-gradient-9" x1="2747.32" y1="49.25" x2="2701.44" y2="49.25" gradientTransform="translate(2854.2 333.38) rotate(180)" xlink:href="#linear-gradient-2"/><linearGradient id="linear-gradient-10" x1="108.09" y1="277.72" x2="250.98" y2="277.72" gradientUnits="userSpaceOnUse"><stop offset="0" stop-color="#d27a37"/><stop offset="0.38" stop-color="#dba741"/><stop offset="0.79" stop-color="#e4d34a"/><stop offset="1" stop-color="#e7e44e"/></linearGradient><linearGradient id="linear-gradient-11" x1="2802.95" y1="82.96" x2="2692.86" y2="82.96" gradientTransform="translate(2854.2 333.38) rotate(180)" xlink:href="#linear-gradient-2"/><linearGradient id="linear-gradient-12" x1="62.59" y1="243.28" x2="205.49" y2="243.28" xlink:href="#linear-gradient-10"/><linearGradient id="linear-gradient-13" x1="16.47" y1="190.85" x2="205.7" y2="190.85" gradientTransform="matrix(1, 0, 0, 1, 0, 0)" xlink:href="#linear-gradient-2"/><linearGradient id="linear-gradient-14" x1="730.85" y1="148.44" x2="623.78" y2="148.44" gradientTransform="matrix(1, 0, 0, -1, -600.96, 333.38)" xlink:href="#linear-gradient-7"/><linearGradient id="linear-gradient-15" x1="23.06" y1="215.38" x2="199.09" y2="215.38" gradientTransform="matrix(1, 0, 0, 1, 0, 0)" xlink:href="#linear-gradient-2"/><linearGradient id="linear-gradient-16" x1="125.48" y1="254.95" x2="379.99" y2="254.95" gradientUnits="userSpaceOnUse"><stop offset="0" stop-color="#5aba47"/><stop offset="1" stop-color="#393d36"/></linearGradient><linearGradient id="linear-gradient-17" x1="141.95" y1="245.77" x2="363.51" y2="245.77" gradientTransform="matrix(1, 0, 0, 1, 0, 0)" xlink:href="#linear-gradient-2"/><linearGradient id="linear-gradient-18" x1="200.43" y1="167.11" x2="305.03" y2="167.11" gradientUnits="userSpaceOnUse"><stop offset="0" stop-color="#40787d"/><stop offset="1" stop-color="#393d36"/></linearGradient><linearGradient id="linear-gradient-19" x1="141.95" y1="275.46" x2="363.51" y2="275.46" gradientUnits="userSpaceOnUse"><stop offset="0" stop-color="#6ebe44"/><stop offset="0.13" stop-color="#80c65f"/><stop offset="0.43" stop-color="#a5d798"/><stop offset="0.68" stop-color="#c1e3c1"/><stop offset="0.88" stop-color="#d2eadb"/><stop offset="1" stop-color="#d8ede4"/></linearGradient><linearGradient id="linear-gradient-20" x1="148.89" y1="221.12" x2="356.57" y2="221.12" xlink:href="#linear-gradient-19"/><linearGradient id="linear-gradient-21" x1="257.9" y1="124.35" x2="257.9" y2="-31.9" gradientTransform="matrix(1, 0, 0, -1, -5.16, 333.38)" gradientUnits="userSpaceOnUse"><stop offset="0" stop-color="#f0ce41"/><stop offset="0.43" stop-color="#f7e495"/><stop offset="0.99" stop-color="#fff"/></linearGradient><linearGradient id="linear-gradient-22" x1="165.74" y1="259.65" x2="339.74" y2="259.65" gradientUnits="userSpaceOnUse"><stop offset="0" stop-color="#d27a37"/><stop offset="0.01" stop-color="#d27c37"/><stop offset="0.12" stop-color="#d99c3e"/><stop offset="0.24" stop-color="#deb644"/><stop offset="0.37" stop-color="#e2ca48"/><stop offset="0.52" stop-color="#e5d94c"/><stop offset="0.7" stop-color="#e6e14d"/><stop offset="1" stop-color="#e7e44e"/></linearGradient><linearGradient id="linear-gradient-23" x1="165.74" y1="272.51" x2="339.74" y2="272.51" xlink:href="#linear-gradient"/><linearGradient id="linear-gradient-24" x1="252.73" y1="44.9" x2="252.73" y2="226.93" gradientTransform="matrix(1, 0, 0, -1, 0, 392)" gradientUnits="userSpaceOnUse"><stop offset="0" stop-color="#029447"/><stop offset="0.01" stop-color="#0c984f"/><stop offset="0.06" stop-color="#37aa6e"/><stop offset="0.12" stop-color="#5dba8a"/><stop offset="0.18" stop-color="#7fc8a3"/><stop offset="0.24" stop-color="#9bd4b7"/><stop offset="0.32" stop-color="#b1ddc8"/><stop offset="0.4" stop-color="#c3e4d4"/><stop offset="0.5" stop-color="#cfe9dd"/><stop offset="0.65" stop-color="#d6ece3"/><stop offset="1" stop-color="#d8ede4"/></linearGradient><linearGradient id="linear-gradient-25" x1="258.71" y1="47.36" x2="258.71" y2="133.06" gradientTransform="matrix(1, 0, 0, -1, -5.16, 333.38)" gradientUnits="userSpaceOnUse"><stop offset="0" stop-color="#d8ede4"/><stop offset="0.4" stop-color="#d6ece4"/><stop offset="0.55" stop-color="#cfeae5"/><stop offset="0.65" stop-color="#c4e7e7"/><stop offset="0.73" stop-color="#b3e2ea"/><stop offset="0.81" stop-color="#9ddced"/><stop offset="0.87" stop-color="#81d4f1"/><stop offset="0.93" stop-color="#61caf6"/><stop offset="0.98" stop-color="#3dbffc"/><stop offset="1" stop-color="#2abaff"/></linearGradient><linearGradient id="linear-gradient-26" x1="258.71" y1="34.44" x2="258.71" y2="-28.92" xlink:href="#linear-gradient-21"/><linearGradient id="linear-gradient-27" x1="214.73" y1="156.63" x2="263.47" y2="156.63" xlink:href="#linear-gradient-22"/><linearGradient id="linear-gradient-28" x1="241.74" y1="156.63" x2="290.48" y2="156.63" xlink:href="#linear-gradient-22"/><linearGradient id="linear-gradient-29" x1="178.71" y1="218.95" x2="338.75" y2="218.95" xlink:href="#linear-gradient-2"/><linearGradient id="linear-gradient-30" x1="182.15" y1="70.54" x2="324.26" y2="70.54" xlink:href="#linear-gradient-18"/><linearGradient id="linear-gradient-31" x1="199.09" y1="262.81" x2="180.2" y2="262.81" xlink:href="#linear-gradient-2"/><linearGradient id="linear-gradient-32" x1="109.29" y1="262.81" x2="90.4" y2="262.81" gradientTransform="translate(421.76 333.38) rotate(180)" xlink:href="#linear-gradient-2"/><linearGradient id="linear-gradient-33" x1="201.6" y1="68.88" x2="305.03" y2="68.88" xlink:href="#linear-gradient-10"/><linearGradient id="linear-gradient-34" x1="205.49" y1="299.21" x2="205.49" y2="355.97" gradientTransform="matrix(1, 0, 0, -1, 0, 392)" xlink:href="#linear-gradient-18"/><linearGradient id="linear-gradient-35" x1="224.99" y1="299.21" x2="224.99" y2="355.97" gradientTransform="matrix(1, 0, 0, -1, 0, 392)" xlink:href="#linear-gradient-18"/><linearGradient id="linear-gradient-36" x1="244.23" y1="299.21" x2="244.23" y2="355.97" gradientTransform="matrix(1, 0, 0, -1, 0, 392)" xlink:href="#linear-gradient-18"/><linearGradient id="linear-gradient-37" x1="282.71" y1="299.21" x2="282.71" y2="355.97" gradientTransform="matrix(1, 0, 0, -1, 0, 392)" xlink:href="#linear-gradient-18"/><linearGradient id="linear-gradient-38" x1="263.47" y1="299.21" x2="263.47" y2="355.97" gradientTransform="matrix(1, 0, 0, -1, 0, 392)" xlink:href="#linear-gradient-18"/><linearGradient id="linear-gradient-39" x1="301.14" y1="299.21" x2="301.14" y2="355.97" gradientTransform="matrix(1, 0, 0, -1, 0, 392)" xlink:href="#linear-gradient-18"/><linearGradient id="linear-gradient-40" x1="232.41" y1="14.99" x2="288.03" y2="14.99" gradientTransform="matrix(1, 0, 0, -1, -5.16, 333.38)" xlink:href="#linear-gradient-7"/><linearGradient id="linear-gradient-41" x1="237.32" y1="3.39" x2="292.94" y2="3.39" gradientTransform="matrix(0.02, -1, -1, -0.02, 297.27, 541.22)" xlink:href="#linear-gradient-7"/><linearGradient id="linear-gradient-42" x1="182.57" y1="-33.39" x2="238.17" y2="-33.39" gradientTransform="matrix(0.06, 1, 1, -0.06, 228.92, 68.54)" xlink:href="#linear-gradient-7"/><linearGradient id="linear-gradient-43" x1="227.03" y1="181.18" x2="282.65" y2="181.18" gradientTransform="matrix(-1, -0.04, -0.04, 1, 513.77, 66.85)" xlink:href="#linear-gradient-7"/></defs><title>veteran_manager</title><path d="M252.73,391.38c-48.37,0-91.65-24.43-113.28-63.07-11.33-.65-24.56-6.61-32.18-14.65l-7.43-7.82a46.8,46.8,0,0,1-7.69-11.26C80.94,293.77,68,287.87,60.52,280l-7.42-7.83a49.52,49.52,0,0,1-9-14.13c-8.74-2.36-17.45-7.17-23.09-13.12l-7.42-7.83C5.71,228.75,0,214.38,0,203v-2.23a16.88,16.88,0,0,1,.07-1.87c.07-.63-.07-1.44-.07-2.11v-20.5a29.68,29.68,0,0,1,29.65-29.65H173A32.18,32.18,0,0,1,149,115.24V32.29C149,14.48,163.13,0,180.45,0a30.89,30.89,0,0,1,21.27,8.49h102.9A30.77,30.77,0,0,1,325.88,0c17.33,0,31.43,14.48,31.43,32.29v83.8a31.49,31.49,0,0,1-23.86,30.52H474.34A29.68,29.68,0,0,1,504,176.26v20.5c0,.67,0,1.37-.07,2.11a15.58,15.58,0,0,0,.07,1.87V203c0,11.44-5.71,25.78-13.58,34.08L483,244.88c-5.64,6-14.35,10.76-23.09,13.12a49.93,49.93,0,0,1-9,14.14L443.49,280c-7.5,7.91-20.42,13.81-31.63,14.62a47.64,47.64,0,0,1-7.69,11.27l-7.42,7.83c-7.28,7.68-19.69,13.46-30.66,14.53C344.46,366.92,301.15,391.38,252.73,391.38Z" transform="translate(0 0)" fill="url(#linear-gradient)"/><path d="M212.1,269.51A12,12,0,0,1,223,256.43a10.45,10.45,0,0,1,1.25-.05H388.08a13.21,13.21,0,0,1,13.17,13.18v2.23c0,7.25-4.07,17.49-9.06,22.75l-7.42,7.84c-5,5.26-15,9.56-22.24,9.56h-134a14.5,14.5,0,0,1-14.18-13.14Z" transform="translate(0 0)" fill="#fff"/><path d="M228.52,305.32a7.86,7.86,0,0,1-7.61-7.05L218.67,269a5.46,5.46,0,0,1,4.84-6,4.78,4.78,0,0,1,.76,0H388.08a6.6,6.6,0,0,1,6.59,6.59v2.23c0,5.52-3.46,14.21-7.26,18.22L380,297.82c-3.73,3.92-12,7.5-17.46,7.5Z" transform="translate(0 0)" fill="url(#linear-gradient-2)"/><path d="M388.08,256.38c7.25,0,4.85.31,4.85,7.56l1.74,6.21c0,3.69-1.71,9.81-3.41,14l-58.11,14.91c-7.25,0-79.7-20.82-80.26-28.05l-1.11-14.63Z" transform="translate(0 0)" fill="url(#linear-gradient-3)"/><path d="M258.84,235.79a12,12,0,0,1,10.8-13.09,12.55,12.55,0,0,1,1.37,0H434.84A13.22,13.22,0,0,1,448,235.83v2.23c0,7.24-4.08,17.48-9.06,22.74l-7.42,7.83c-5,5.26-15,9.57-22.25,9.57h-134a14.52,14.52,0,0,1-14.19-13.14Z" transform="translate(0 0)" fill="#fff"/><path d="M275.26,271.61a7.88,7.88,0,0,1-7.62-7.06l-2.24-29.26a5.46,5.46,0,0,1,4.83-6,5.09,5.09,0,0,1,.78,0H434.84a6.59,6.59,0,0,1,6.58,6.59v2.23c0,5.52-3.45,14.2-7.26,18.21l-7.41,7.83c-3.73,3.93-12.05,7.51-17.47,7.51Z" transform="translate(0 0)" fill="url(#linear-gradient-4)"/><path d="M428.84,222.65c6.93,0,12.59,5.93,12.59,13.18v2.23c0,3.69-1.78,8.17-3.4,12.36l-131.34,13.5c-6.93,0-6.55-19.41-7.08-26.64l-1.07-14.63Z" transform="translate(0 0)" fill="url(#linear-gradient-5)"/><path d="M310.54,163.08h163.8a13.22,13.22,0,0,1,13.18,13.18v20.5l-16,11.81-.47.5c-5,5.26-15,9.56-22.25,9.56h-134a14.55,14.55,0,0,1-13.57-10.06l-2.89-17.71V176.22a12.06,12.06,0,0,1,10.93-13.09A10.12,10.12,0,0,1,310.54,163.08Z" transform="translate(0 0)" fill="url(#linear-gradient-6)"/><rect x="310.54" y="169.5" width="164.96" height="30.88" fill="url(#linear-gradient-7)"/><path d="M470.69,174.32a4.81,4.81,0,0,1,4.8-4.82h0a4.82,4.82,0,0,1,4.82,4.82h0v14.06a4.81,4.81,0,0,1-4.81,4.81h0a4.81,4.81,0,0,1-4.81-4.81Z" transform="translate(0 0)" fill="#fff"/><path d="M298.36,194.49a12.07,12.07,0,0,1,11-13.07c.41,0,.81,0,1.22,0h163.8a13.22,13.22,0,0,1,13.18,13.18v2.23c0,7.25-4.07,17.49-9.06,22.75L471,227.38c-5,5.26-15,9.57-22.25,9.57h-134a14.5,14.5,0,0,1-14.18-13.15Z" transform="translate(0 0)" fill="#fff"/><path d="M298.36,200.7a12.06,12.06,0,0,1,10.93-13.09,10.45,10.45,0,0,1,1.25-.05h163.8a13.22,13.22,0,0,1,13.18,13.18V203c0,7.25-4.07,17.49-9.06,22.75L471,233.55c-5,5.26-15,9.56-22.25,9.56h-134A14.5,14.5,0,0,1,300.66,230Z" transform="translate(0 0)" fill="#fff"/><path d="M314.84,236.52a7.86,7.86,0,0,1-7.61-7.05L305,200.2a5.48,5.48,0,0,1,4.93-6,5.15,5.15,0,0,1,.68,0H474.34a6.6,6.6,0,0,1,6.59,6.59V203c0,5.52-3.45,14.2-7.25,18.21l-7.42,7.84c-3.73,3.93-12.05,7.5-17.47,7.5Z" transform="translate(0 0)" fill="url(#linear-gradient-8)"/><polygon points="364.93 184.94 393.67 169.5 416.13 169.5 386.59 184.94 364.93 184.94" fill="#fff"/><polygon points="435.75 169.5 407.89 184.94 431.83 184.94 459.77 169.5 435.75 169.5" fill="#fff"/><path d="M291.9,269.51A12.06,12.06,0,0,0,281,256.43a10.12,10.12,0,0,0-1.23-.05H115.92a13.22,13.22,0,0,0-13.18,13.18v2.23c0,7.25,4.08,17.49,9.07,22.75l7.42,7.83c5,5.26,15,9.56,22.24,9.56h134a14.5,14.5,0,0,0,14.18-13.14Z" transform="translate(0 0)" fill="#fff"/><path d="M275.48,305.32a7.86,7.86,0,0,0,7.61-7.05L285.33,269a5.46,5.46,0,0,0-4.84-6,4.78,4.78,0,0,0-.76,0H115.92a6.6,6.6,0,0,0-6.59,6.59v2.23c0,5.52,3.46,14.21,7.26,18.22l7.42,7.83c3.72,3.92,12,7.5,17.46,7.5Z" transform="translate(0 0)" fill="url(#linear-gradient-9)"/><path d="M114.68,256.38c-7.25,0-4.85.31-4.85,7.56l-1.74,6.21c0,3.69,1.71,9.81,3.41,14l58.1,14.9c7.25,0,79.7-20.82,80.26-28.05L251,256.38Z" transform="translate(0 0)" fill="url(#linear-gradient-10)"/><path d="M245.16,235.79a12,12,0,0,0-10.8-13.09,12.55,12.55,0,0,0-1.37,0H69.18A13.22,13.22,0,0,0,56,235.83v2.23c0,7.24,4.08,17.48,9.07,22.74l7.42,7.83c5,5.26,15,9.57,22.24,9.57h134a14.5,14.5,0,0,0,14.18-13.14Z" transform="translate(0 0)" fill="#fff"/><path d="M228.74,271.61a7.87,7.87,0,0,0,7.61-7.06l2.24-29.26a5.45,5.45,0,0,0-4.81-6,5.22,5.22,0,0,0-.79,0H69.18a6.6,6.6,0,0,0-6.59,6.59v2.23c0,5.52,3.46,14.2,7.26,18.21l7.42,7.83c3.73,3.93,12,7.51,17.46,7.51Z" transform="translate(0 0)" fill="url(#linear-gradient-11)"/><path d="M75.19,222.65c-6.93,0-12.6,5.93-12.6,13.18v2.23c0,3.69,1.78,8.17,3.41,12.36l131.34,13.5c6.93,0,6.55-19.41,7.08-26.64l1.07-14.63Z" transform="translate(0 0)" fill="url(#linear-gradient-12)"/><path d="M193.46,163.08H29.65a13.22,13.22,0,0,0-13.18,13.18v20.5l16,11.81.47.5c5,5.26,15,9.56,22.24,9.56h134a14.54,14.54,0,0,0,13.56-10.06l2.9-17.71V176.22a12,12,0,0,0-10.8-13.09A12.73,12.73,0,0,0,193.46,163.08Z" transform="translate(0 0)" fill="url(#linear-gradient-13)"/><rect x="28.5" y="169.5" width="164.96" height="30.88" fill="url(#linear-gradient-14)"/><path d="M33.31,174.32a4.81,4.81,0,0,0-4.8-4.82h0a4.82,4.82,0,0,0-4.82,4.82h0v14.06a4.81,4.81,0,0,0,4.81,4.81h0a4.81,4.81,0,0,0,4.81-4.81Z" transform="translate(0 0)" fill="#fff"/><path d="M205.63,194.49a12,12,0,0,0-10.84-13.06,11.74,11.74,0,0,0-1.33-.05H29.65a13.23,13.23,0,0,0-13.18,13.18v2.23c0,7.25,4.08,17.49,9.07,22.75L33,227.38C38,232.64,48,237,55.2,237h134a14.5,14.5,0,0,0,14.18-13.15Z" transform="translate(0 0)" fill="#fff"/><path d="M205.63,200.7a12,12,0,0,0-10.8-13.09,12.55,12.55,0,0,0-1.37-.05H29.65a13.22,13.22,0,0,0-13.18,13.18V203c0,7.25,4.08,17.49,9.07,22.75L33,233.55c5,5.26,15,9.56,22.24,9.56h134A14.5,14.5,0,0,0,203.38,230Z" transform="translate(0 0)" fill="#fff"/><path d="M189.21,236.52a7.86,7.86,0,0,0,7.61-7.05l2.24-29.27a5.46,5.46,0,0,0-4.89-6,5.61,5.61,0,0,0-.71,0H29.65a6.6,6.6,0,0,0-6.59,6.59V203c0,5.52,3.46,14.2,7.26,18.21l7.42,7.84c3.73,3.93,12,7.5,17.46,7.5Z" transform="translate(0 0)" fill="url(#linear-gradient-15)"/><polygon points="44.22 184.94 72.97 169.5 95.43 169.5 65.89 184.94 44.22 184.94" fill="#fff"/><polygon points="115.04 169.5 87.19 184.94 111.13 184.94 139.07 169.5 115.04 169.5" fill="#fff"/><path d="M252.73,391.38c-70.17,0-127.25-52-127.25-115.94,0-1.13,0-2.32.07-3.66l-.06-.1V245.76a127.25,127.25,0,0,1,254.5,0h0l-.1,17c0,1.27.1,2.54.1,3.82s0,2.78-.11,4.44c.08,1.66.11,3.09.11,4.44C380,339.38,322.9,391.38,252.73,391.38Z" transform="translate(0 0)" fill="url(#linear-gradient-16)"/><path d="M363.51,245.76a110.78,110.78,0,0,0-221.56,0V267l3.24,5.37a110.78,110.78,0,0,0,215.07,0l3.14-8.23Z" transform="translate(0 0)" fill="url(#linear-gradient-17)"/><path d="M305,167.11c0-13.08-23.42-23.69-52.3-23.69s-52.3,10.61-52.3,23.69,23.42,23.7,52.3,23.7S305,180.2,305,167.11Z" transform="translate(0 0)" fill="url(#linear-gradient-18)"/><path d="M363.51,266.58c0-54.93-49.6-99.47-110.78-99.47S142,211.65,142,266.58s49.6,99.47,110.78,99.47S363.51,321.51,363.51,266.58Z" transform="translate(0 0)" fill="#fff"/><path d="M363.51,275.46c0-54.94-49.6-99.47-110.78-99.47S142,220.52,142,275.46s49.6,99.47,110.78,99.47S363.51,330.38,363.51,275.46Z" transform="translate(0 0)" fill="url(#linear-gradient-19)"/><path d="M252.73,266.25c42.75,0,80.58-10.05,103.84-25.48C340.89,202.94,300.32,176,252.73,176s-88.16,26.95-103.84,64.78C172.15,256.2,210,266.25,252.73,266.25Z" transform="translate(0 0)" fill="url(#linear-gradient-20)"/><path d="M339.74,280c0-43.15-39-78.13-87-78.13s-87,35-87,78.13,39,78.12,87,78.12S339.74,323.18,339.74,280Z" transform="translate(0 0)" fill="url(#linear-gradient-21)"/><path d="M339.74,259.66c0-43.15-39-78.13-87-78.13s-87,35-87,78.13,39,78.12,87,78.12S339.74,302.81,339.74,259.66Z" transform="translate(0 0)" fill="url(#linear-gradient-22)"/><path d="M339.74,272.5c0-43.15-39-78.12-87-78.12s-87,35-87,78.12,39,78.13,87,78.13S339.74,315.65,339.74,272.5Z" transform="translate(0 0)" fill="url(#linear-gradient-23)"/><ellipse cx="252.73" cy="275.46" rx="72.62" ry="65.2" fill="url(#linear-gradient-24)"/><path d="M280.66,181.12c0-5.35-12.5-9.68-27.93-9.68s-27.89,4.33-27.89,9.68,12.51,9.69,27.94,9.69S280.66,186.47,280.66,181.12Z" transform="translate(0 0)" fill="#fff"/><rect x="242.11" y="147.61" width="19.52" height="22.36" fill="#fff"/><path d="M343,229.69c2.17-1.63,2.1-5.37-.14-8.34s-5.81-4.06-8-2.42-2.1,5.36.14,8.34S340.84,231.32,343,229.69Z" transform="translate(0 0)" fill="#fff"/><path d="M162.84,230.12c2.34,1.38,5.76-.12,7.64-3.33s1.51-6.93-.82-8.3-5.77.12-7.65,3.34S160.49,228.75,162.84,230.12Z" transform="translate(0 0)" fill="#fff"/><path d="M265.46,358.15c0-4-5.7-7.16-12.73-7.16S240,354.19,240,358.15s5.7,7.18,12.73,7.18S265.46,362.11,265.46,358.15Z" transform="translate(0 0)" fill="#fff"/><path id="_Path_" data-name="&lt;Path&gt;" d="M304.49,256.57c0-19.32-22.81-35-50.94-35s-50.93,15.66-50.93,35S225.42,283,253.55,283,304.49,275.88,304.49,256.57Z" transform="translate(0 0)" fill="url(#linear-gradient-25)"/><path d="M277,317.78c0-8.87-10.48-7.36-23.42-7.36s-23.42-1.51-23.42,7.36,10.49,16.09,23.42,16.09S277,326.67,277,317.78Z" transform="translate(0 0)" fill="url(#linear-gradient-26)"/><path d="M226.31,170s15.43-8.31,9.7-16.2c-1.49-2-7.13-4.52-21.28-2.93,0,0,32-15.64,48.74-1.89l-13.88,11.49S261.84,167.67,226.31,170Z" transform="translate(0 0)" fill="url(#linear-gradient-27)"/><path d="M278.9,170s-15.43-8.31-9.71-16.2c1.49-2,7.14-4.52,21.29-2.93,0,0-32-15.64-48.74-1.89l13.87,11.49S243.36,167.67,278.9,170Z" transform="translate(0 0)" fill="url(#linear-gradient-28)"/><path d="M280.46,238.65c0,8.32-12,15.07-26.91,15.07s-26.91-6.75-26.91-15.07,12-15.07,26.91-15.07S280.46,230.32,280.46,238.65Z" transform="translate(0 0)" fill="#fff"/><path d="M268,130.94A14.92,14.92,0,0,0,253,116h0a14.92,14.92,0,0,0-14.93,14.93h0v15.79A14.92,14.92,0,0,0,253,161.66h0A14.92,14.92,0,0,0,268,146.73Z" transform="translate(0 0)" fill="#a84d19"/><path d="M326,101.14a14.92,14.92,0,0,1,14.88,14.94v.06h0a14.91,14.91,0,0,1-14.88,15H181.11a14.91,14.91,0,0,1-14.88-15h0a14.92,14.92,0,0,1,14.84-15H326Z" transform="translate(0 0)" fill="#737373"/><path d="M323.64,106.7c5.17,0,9.37,3.46,9.37,7.73h0c0,4.26-4.2,7.72-9.37,7.72H184.1c-5.17,0-9.37-3.46-9.37-7.72h0c0-4.27,4.2-7.73,9.37-7.73Z" transform="translate(0 0)" fill="url(#linear-gradient-29)"/><path d="M249.69,106.47a8,8,0,0,0-7.95,8h0a8,8,0,0,0,7.95,8h6.78a8,8,0,0,0,7.95-8h0a8,8,0,0,0-7.95-8Z" transform="translate(0 0)" fill="#fff"/><rect x="182.15" y="24.97" width="142.11" height="91.13" fill="url(#linear-gradient-30)"/><path d="M195.44,32.29c0-8.74-6.7-15.82-15-15.82h0c-8.26,0-14.95,7.08-14.95,15.82v82.93c0,8.73,6.69,15.82,14.95,15.82h0c8.26,0,15-7.09,15-15.82Z" transform="translate(0 0)" fill="#737373"/><path d="M189.84,34.38c0-5.18-3.46-9.38-7.72-9.38h0c-4.27,0-7.73,4.2-7.73,9.38v72.37c0,5.18,3.46,9.38,7.73,9.38h0c4.26,0,7.72-4.2,7.72-9.38Z" transform="translate(0 0)" fill="url(#linear-gradient-31)"/><path d="M190.11,39.69a8,8,0,0,1-8,8h0a8,8,0,0,1-8-8V32.92a8,8,0,0,1,8-8h0a8,8,0,0,1,8,8Z" transform="translate(0 0)" fill="#fff"/><path d="M190.11,108.14a8,8,0,0,1-8,8h0a8,8,0,0,1-8-8v-6.76a8,8,0,0,1,8-7.95h0a8,8,0,0,1,8,7.95Z" transform="translate(0 0)" fill="#fff"/><path d="M311,32.29c0-8.74,6.7-15.82,15-15.82h0c8.26,0,15,7.08,15,15.82v82.93c0,8.73-6.7,15.82-15,15.82h0c-8.25,0-15-7.09-15-15.82Z" transform="translate(0 0)" fill="#737373"/><path d="M316.53,34.38c0-5.18,3.46-9.38,7.72-9.38h0c4.27,0,7.73,4.2,7.73,9.38v72.37c0,5.18-3.46,9.38-7.73,9.38h0c-4.26,0-7.72-4.2-7.72-9.38Z" transform="translate(0 0)" fill="url(#linear-gradient-32)"/><path d="M316.29,39.69a8,8,0,0,0,8,8h0a8,8,0,0,0,8-8V32.92a8,8,0,0,0-8-8h0a8,8,0,0,0-8,8Z" transform="translate(0 0)" fill="#fff"/><path d="M316.29,108.14a8,8,0,0,0,8,8h0a8,8,0,0,0,8-8v-6.76a8,8,0,0,0-8-7.95h0a8,8,0,0,0-8,7.95Z" transform="translate(0 0)" fill="#fff"/><rect x="201.6" y="31.27" width="103.43" height="75.22" fill="url(#linear-gradient-33)"/><rect x="201.6" y="31.27" width="7.78" height="75.22" fill="url(#linear-gradient-34)"/><rect x="221.1" y="31.27" width="7.78" height="75.22" fill="url(#linear-gradient-35)"/><rect x="240.34" y="31.27" width="7.78" height="75.22" fill="url(#linear-gradient-36)"/><rect x="278.82" y="31.27" width="7.78" height="75.22" fill="url(#linear-gradient-37)"/><rect x="259.58" y="31.27" width="7.78" height="75.22" fill="url(#linear-gradient-38)"/><rect x="297.25" y="31.27" width="7.78" height="75.22" fill="url(#linear-gradient-39)"/><path d="M182.15,119.24a3.15,3.15,0,0,1,3.13-3.15h16.09a3.15,3.15,0,0,1,3.15,3.15h0a3.15,3.15,0,0,1-3.15,3.15H185.3a3.15,3.15,0,0,1-3.15-3.13v0Z" transform="translate(0 0)" fill="#fff"/><path d="M301.84,119.24a3.15,3.15,0,0,1,3.15-3.15h16.07a3.15,3.15,0,0,1,3.15,3.15h0a3.15,3.15,0,0,1-3.15,3.15H305a3.15,3.15,0,0,1-3.15-3.15Z" transform="translate(0 0)" fill="#fff"/><path d="M190.11,106.47s-.61,9.62,5.33,9.62,3.4,6.29,3.4,6.29H185.3s-10.88.81-11.12-14.25Z" transform="translate(0 0)" fill="#fff"/><path d="M316.29,106.47s.61,9.62-5.33,9.62-3.42,6.3-3.42,6.3H321.1s10.88.81,11.11-14.25Z" transform="translate(0 0)" fill="#fff"/><path d="M259.65,145.1a6.72,6.72,0,0,1-6.72,6.72h0a6.7,6.7,0,0,1-6.71-6.71h0v-1.51a6.7,6.7,0,0,1,6.7-6.72h0a6.72,6.72,0,0,1,6.72,6.72h0Z" transform="translate(0 0)" fill="#f1d13c"/><path d="M252.65,341.25a17.07,17.07,0,0,1-5.8-1L224.26,332a14.78,14.78,0,0,1-9.54-13.63V309.9a13.05,13.05,0,0,1,12.83-13.27h.3a13.51,13.51,0,0,1,4.58.81l20.24,7.27,20.21-7.27a13.69,13.69,0,0,1,4.61-.81,13,13,0,0,1,13.12,13,1.5,1.5,0,0,1,0,.3v8.48A14.77,14.77,0,0,1,281.06,332l-22.62,8.26A17.06,17.06,0,0,1,252.65,341.25Z" transform="translate(0 0)" fill="#333535"/><path d="M277.76,304.72a5,5,0,0,0-2,.41h0l-23.11,8.25-23.43-8.27-2,18.08,25.86,8.88,25.53-8.88v-.08a5.1,5.1,0,0,0,4.23-5V309.8A5.09,5.09,0,0,0,277.76,304.72Z" transform="translate(0 0)" fill="url(#linear-gradient-40)"/><path d="M278.63,320.26v.07l-25.53,8.88-25.55-8.77-.3,2.77,25.86,10.07,25.53-10v-.08a5.1,5.1,0,0,0,4.23-5v-2.87A5.11,5.11,0,0,1,278.63,320.26Z" transform="translate(0 0)" fill="#8c3606"/><path d="M232.35,318.11a5.1,5.1,0,0,1-5.1,5.1h0a5.09,5.09,0,0,1-5.08-5.1v-8.29a5.09,5.09,0,0,1,5.08-5.1h0a5.1,5.1,0,0,1,5.1,5.1Z" transform="translate(0 0)" fill="#fff"/><path d="M282.86,318.11a5.1,5.1,0,0,1-5.1,5.1h0a5.09,5.09,0,0,1-5.09-5.1v-8.29a5.09,5.09,0,0,1,5.09-5.1h0a5.1,5.1,0,0,1,5.1,5.1Z" transform="translate(0 0)" fill="#fff"/><path d="M254.36,317.07a2.83,2.83,0,0,1-3.63,1.68L227,310.31a2.83,2.83,0,0,1-1.68-3.64h0A2.84,2.84,0,0,1,229,305l23.73,8.44A2.83,2.83,0,0,1,254.36,317.07Z" transform="translate(0 0)" fill="#fff"/><path d="M250.13,317.37a2.84,2.84,0,0,0,3.63,1.68l24.54-8.74a2.83,2.83,0,0,0,1.68-3.64h0a2.84,2.84,0,0,0-3.63-1.68l-24.54,8.74A2.83,2.83,0,0,0,250.13,317.37Z" transform="translate(0 0)" fill="#fff"/><path d="M321.73,278.93a17.32,17.32,0,0,1-1.09,5.78L312,307.13a14.77,14.77,0,0,1-13.81,9.28l-8.48-.16a13,13,0,0,1-13-13.08v-.29a13.76,13.76,0,0,1,.9-4.58l7.66-20.09-6.89-20.35a13.7,13.7,0,0,1-.72-4.62,13.06,13.06,0,0,1,13.22-12.88h.3l8.47.16A14.79,14.79,0,0,1,313,250.34l7.83,22.77A17,17,0,0,1,321.73,278.93Z" transform="translate(0 0)" fill="#333535"/><path d="M285.68,253.12a5.21,5.21,0,0,0,.37,2h0l7.81,23.26-8.69,23.27,18,2.33,9.37-25.68-8.39-25.69h-.08a5.11,5.11,0,0,0-4.94-4.33l-8.29-.16a5.11,5.11,0,0,0-5.2,5Z" transform="translate(0 0)" fill="url(#linear-gradient-41)"/><path d="M301.24,252.55h.07l8.39,25.7-9.26,25.37,2.77.36,10.53-25.66-9.55-25.71h-.08a5.11,5.11,0,0,0-4.94-4.33l-2.87-.06A5.11,5.11,0,0,1,301.24,252.55Z" transform="translate(0 0)" fill="#8c3606"/><path d="M298.21,298.78a5.1,5.1,0,0,1,5,5.19h0a5.09,5.09,0,0,1-5.19,5l-8.3-.15a5.11,5.11,0,0,1-5-5.19h0a5.09,5.09,0,0,1,5.19-5Z" transform="translate(0 0)" fill="#fff"/><path d="M299.17,248.28a5.09,5.09,0,0,1,5,5.19h0a5.09,5.09,0,0,1-5.19,5l-8.3-.15a5.11,5.11,0,0,1-5-5.19h0a5.11,5.11,0,0,1,5.2-5Z" transform="translate(0 0)" fill="#fff"/><path d="M297.58,276.75a2.84,2.84,0,0,1,1.62,3.67L290.3,304a2.82,2.82,0,0,1-3.66,1.61h0a2.84,2.84,0,0,1-1.62-3.66l8.9-23.57A2.84,2.84,0,0,1,297.58,276.75Z" transform="translate(0 0)" fill="#fff"/><path d="M297.8,281a2.83,2.83,0,0,0,1.75-3.6l-8.27-24.7a2.83,2.83,0,0,0-3.6-1.75h0a2.84,2.84,0,0,0-1.75,3.6l8.27,24.7A2.83,2.83,0,0,0,297.8,281Z" transform="translate(0 0)" fill="#fff"/><path d="M184.4,279.31a17.44,17.44,0,0,1,.66-5.84l7-23a14.78,14.78,0,0,1,13.08-10.3l8.46-.47a13.06,13.06,0,0,1,14,12.1c0,.09,0,.18,0,.26a13.66,13.66,0,0,1-.55,4.63l-6.13,20.61,8.39,19.78a13.45,13.45,0,0,1,1.07,4.54,13.06,13.06,0,0,1-12.25,13.84l-.26,0-8.47.47a14.77,14.77,0,0,1-14.14-8.77L185.72,285A17.16,17.16,0,0,1,184.4,279.31Z" transform="translate(0 0)" fill="#333535"/><path d="M222.28,302.35a5,5,0,0,0-.51-2h0l-9.54-22.61,6.94-23.85L201,253l-7.42,26.3,10.3,25h.05a5.1,5.1,0,0,0,5.25,3.94l8.28-.47a5.09,5.09,0,0,0,4.83-5.34Z" transform="translate(0 0)" fill="url(#linear-gradient-42)"/><path d="M206.83,304.08h-.08l-10.3-25,7.35-26L201,253l-8.58,26.37,11.46,24.93h0a5.1,5.1,0,0,0,5.25,3.94L212,308A5.09,5.09,0,0,1,206.83,304.08Z" transform="translate(0 0)" fill="#8c3606"/><path d="M206.38,257.75A5.11,5.11,0,0,1,201,253h0a5.1,5.1,0,0,1,4.81-5.37l8.28-.47a5.11,5.11,0,0,1,5.37,4.81h0a5.08,5.08,0,0,1-4.8,5.36h0Z" transform="translate(0 0)" fill="#fff"/><path d="M209.2,308.18a5.1,5.1,0,0,1-5.37-4.8h0a5.08,5.08,0,0,1,4.8-5.37l8.29-.47a5.09,5.09,0,0,1,5.36,4.81h0a5.08,5.08,0,0,1-4.79,5.36h0Z" transform="translate(0 0)" fill="#fff"/><path d="M208.65,279.71a2.86,2.86,0,0,1-1.89-3.53L213.87,252a2.86,2.86,0,0,1,3.53-1.88h0a2.83,2.83,0,0,1,1.88,3.54l-7.09,24.17a2.84,2.84,0,0,1-3.53,1.88Z" transform="translate(0 0)" fill="#fff"/><path d="M208.12,275.46a2.84,2.84,0,0,0-1.48,3.73l10.09,24a2.84,2.84,0,0,0,3.73,1.47h0a2.83,2.83,0,0,0,1.47-3.72l-10.09-24a2.83,2.83,0,0,0-3.72-1.48Z" transform="translate(0 0)" fill="#fff"/><path d="M255,214.51a17,17,0,0,1,5.76,1.22l22.22,9.2a14.76,14.76,0,0,1,9,14l-.35,8.47a13.05,13.05,0,0,1-13.38,12.72h-.29a13.23,13.23,0,0,1-4.55-1L253.41,251l-20.49,6.42a13.51,13.51,0,0,1-4.64.61,13.05,13.05,0,0,1-12.57-13.51c0-.1,0-.19,0-.29l.36-8.47a14.77,14.77,0,0,1,10.11-13.22l22.94-7.31A16.7,16.7,0,0,1,255,214.51Z" transform="translate(0 0)" fill="#333535"/><path d="M228.34,250a4.84,4.84,0,0,0,2-.33h0l23.44-7.28,23.06,9.24,2.74-18-25.46-10-25.88,7.8v.09a5.09,5.09,0,0,0-4.44,4.83l-.35,8.29A5.1,5.1,0,0,0,228.34,250Z" transform="translate(0 0)" fill="url(#linear-gradient-43)"/><path d="M228.13,234.4v-.07L254,226.52l25.16,9.83.42-2.76-25.42-11.14-25.92,9v.08a5.1,5.1,0,0,0-4.44,4.84l-.12,2.87A5.1,5.1,0,0,1,228.13,234.4Z" transform="translate(0 0)" fill="#8c3606"/><path d="M274.27,238.47a5.1,5.1,0,0,1,5.31-4.88h0a5.1,5.1,0,0,1,4.87,5.31l-.34,8.29a5.11,5.11,0,0,1-5.3,4.88h0a5.1,5.1,0,0,1-4.88-5.31Z" transform="translate(0 0)" fill="#fff"/><path d="M223.81,236.36a5.1,5.1,0,0,1,5.31-4.88h0a5.1,5.1,0,0,1,4.87,5.31l-.35,8.29a5.1,5.1,0,0,1-5.3,4.88h0a5.1,5.1,0,0,1-4.88-5.31Z" transform="translate(0 0)" fill="#fff"/><path d="M252.24,238.6a2.83,2.83,0,0,1,3.7-1.53l23.36,9.42a2.86,2.86,0,0,1,1.53,3.71h0a2.84,2.84,0,0,1-3.71,1.52l-23.35-9.42A2.84,2.84,0,0,1,252.24,238.6Z" transform="translate(0 0)" fill="#fff"/><path d="M256.48,238.47a2.84,2.84,0,0,0-3.56-1.83L228,244.35a2.85,2.85,0,0,0-1.83,3.57h0a2.84,2.84,0,0,0,3.56,1.83L254.65,242A2.84,2.84,0,0,0,256.48,238.47Z" transform="translate(0 0)" fill="#fff"/></svg>