<svg id="Capa_1" enable-background="new 0 0 512 512" height="512" viewBox="0 0 512 512" width="512" xmlns="http://www.w3.org/2000/svg"><g><path d="m75 211h-15v-15c0-8.291-6.709-15-15-15s-15 6.709-15 15v15h-15c-8.291 0-15 6.709-15 15s6.709 15 15 15h15v15c0 8.291 6.709 15 15 15s15-6.709 15-15v-15h15c8.291 0 15-6.709 15-15s-6.709-15-15-15z"/><path d="m497 452h-15v-15c0-8.291-6.709-15-15-15s-15 6.709-15 15v15h-15c-8.291 0-15 6.709-15 15s6.709 15 15 15h15v15c0 8.291 6.709 15 15 15s15-6.709 15-15v-15h15c8.291 0 15-6.709 15-15s-6.709-15-15-15z"/><circle cx="497" cy="347" r="15"/><circle cx="15" cy="346" r="15"/><path d="m243.679 152.139c.016.024.007.057.024.081 9.836-.682 24.037-3.139 56.246 4.199l117.554-156.419h-64.497c-4.717 0-9.17 2.227-11.997 6.006l-85.042 113.136-84.976-113.136c-2.827-3.779-7.28-6.006-11.997-6.006h-64.502l117.913 156.878c10.297-2.372 20.758-3.847 31.274-4.739z"/><path d="m132.093 195.773c9.419-7.842 19.862-17.223 49.971-29.368l-125.058-166.405h-42.006c-5.684 0-10.869 3.208-13.418 8.291-2.534 5.083-1.992 11.162 1.421 15.703z"/><path d="m379.898 195.786 129.099-171.792c3.413-4.541 3.955-10.62 1.421-15.703-2.549-5.083-7.734-8.291-13.418-8.291h-42.012l-124.808 166.09c27.703 11.249 39.283 20.993 49.718 29.696z"/><path d="m91 347c0 90.981 74.019 165 165 165s165-74.019 165-165c0-93.838-77.889-165.654-165.003-165.664-89.774-.011-164.997 74.308-164.997 165.664zm195 75h-60c-8.291 0-15-6.709-15-15s6.709-15 15-15h15v-68.789l-4.395 4.395c-5.859 5.859-15.351 5.86-21.211 0-5.859-5.859-5.859-15.352 0-21.211l29.982-29.982c1.388-1.392 3.051-2.496 4.896-3.259 7.64-3.16 16.41.471 19.574 8.119.758 1.833 1.154 3.776 1.154 5.728v105h15c8.291 0 15 6.709 15 15s-6.709 14.999-15 14.999z"/></g></svg>