<svg width="1920" height="802" viewBox="0 0 1920 802" fill="none" xmlns="http://www.w3.org/2000/svg">
<g clip-path="url(#clip0)">
<rect width="1920" height="802" fill="white"/>
<path d="M1904 -7.8999H-16V874.7H1904V-7.8999Z" fill="url(#paint0_radial)"/>
<g opacity="0.5">
<path opacity="0.5" d="M1302.01 1008.58C1315.23 718.358 1569.56 401.613 1964.42 224.696C2359.29 47.7797 2777.83 63.1364 3021.04 238.238" stroke="white" stroke-width="1.5" stroke-miterlimit="10"/>
<path opacity="0.5" d="M1031.09 1000.71C1060.63 703.166 1357.75 367.262 1802.64 167.805C2247.53 -31.6525 2708.97 -35.3662 2968.61 132.505" stroke="white" stroke-width="1.5" stroke-miterlimit="10"/>
<path opacity="0.5" d="M686.484 1021.48C738.06 714.15 1093.38 353.909 1606.28 124.151C2119.19 -105.608 2638.03 -137.024 2919.6 21.0742" stroke="white" stroke-width="1.5" stroke-miterlimit="10"/>
</g>
<path d="M283.9 365.5C286.1 365.5 287.8 367.1 287.8 369.3C287.8 371.4 286.1 373.1 283.9 373.1C281.7 373.1 280 371.5 280 369.3C280 367.2 281.7 365.5 283.9 365.5ZM264.3 350.4C265.7 350.4 266.9 351.6 266.9 352.9C266.9 354.3 265.7 355.4 264.3 355.4C262.9 355.4 261.7 354.2 261.7 352.9C261.7 351.5 262.9 350.4 264.3 350.4ZM283.9 336.5C285.3 336.5 286.5 337.7 286.5 339C286.5 340.4 285.3 341.5 283.9 341.5C282.5 341.5 281.3 340.3 281.3 339C281.3 337.7 282.4 336.5 283.9 336.5ZM359.4 306.4C360.8 306.4 362 307.6 362 308.9C362 310.3 360.8 311.4 359.4 311.4C358 311.4 356.8 310.2 356.8 308.9C356.8 307.6 358 306.4 359.4 306.4ZM356.8 272.5C357.6 272.5 358.1 273 358.1 273.8C358.1 274.6 357.6 275.1 356.8 275.1C356 275.1 355.5 274.6 355.5 273.8C355.5 273 356.1 272.5 356.8 272.5ZM79.3 392.4C79.8 392.4 80.4 392.8 80.4 393.5C80.4 394.2 80 394.6 79.3 394.6C78.6 394.6 78.2 394.2 78.2 393.5C78.2 392.7 78.8 392.4 79.3 392.4ZM83.4 375.6C83.9 375.6 84.5 376 84.5 376.6C84.5 377.2 84.1 377.6 83.4 377.6C82.7 377.6 82.3 377.2 82.3 376.6C82.3 376 82.9 375.6 83.4 375.6ZM64.3 377.5C65.2 377.5 65.8 378.1 65.8 378.9C65.8 379.8 65.2 380.3 64.3 380.3C63.4 380.3 62.8 379.7 62.8 378.9C62.8 378.1 63.6 377.5 64.3 377.5ZM208.9 310.2C210.7 310.2 212.1 311.6 212.1 313.3C212.1 315 210.6 316.4 208.9 316.4C207.1 316.4 205.7 315 205.7 313.3C205.7 311.6 207.1 310.2 208.9 310.2ZM191.3 325.3C192.1 325.3 192.6 325.8 192.6 326.6C192.6 327.4 192.1 327.9 191.3 327.9C190.5 327.9 190 327.4 190 326.6C190 325.8 190.7 325.3 191.3 325.3ZM205.6 347.9C207 347.9 208.2 349.1 208.2 350.4C208.2 351.8 207 352.9 205.6 352.9C204.2 352.9 203 351.7 203 350.4C203 349 204.2 347.9 205.6 347.9ZM7.19998 332.7C8.39998 332.7 9.19998 333.7 9.19998 334.6C9.19998 335.7 8.19998 336.5 7.19998 336.5C5.99998 336.5 5.19998 335.5 5.19998 334.6C5.19998 333.6 5.99998 332.7 7.19998 332.7ZM9.29998 381.5C10.5 381.5 11.3 382.5 11.3 383.4C11.3 384.3 10.3 385.3 9.29998 385.3C8.09998 385.3 7.29998 384.3 7.29998 383.4C7.29998 382.5 8.09998 381.5 9.29998 381.5ZM38.6 354.6C38.9 354.6 39.1 354.8 39.1 355.1C39.1 355.4 38.9 355.6 38.6 355.6C38.3 355.6 38.1 355.4 38.1 355.1C38 354.8 38.4 354.6 38.6 354.6ZM-15.9 298.9C-15 298.9 -14.4 299.5 -14.4 300.3C-14.4 301.2 -15 301.7 -15.9 301.7C-16.8 301.7 -17.4 301.1 -17.4 300.3C-17.5 299.6 -16.8 298.9 -15.9 298.9ZM334.6 188.2C335.4 188.2 335.9 188.7 335.9 189.5C335.9 190.3 335.4 190.8 334.6 190.8C333.8 190.8 333.3 190.3 333.3 189.5C333.3 188.7 334 188.2 334.6 188.2ZM296.3 190.7C297.4 190.7 298.2 191.6 298.2 192.5C298.2 193.6 297.3 194.3 296.3 194.3C295.2 194.3 294.4 193.4 294.4 192.5C294.3 191.6 295.2 190.7 296.3 190.7ZM302.7 210.8C303 210.8 303.3 211.1 303.3 211.4C303.3 211.7 303 212 302.7 212C302.4 212 302.1 211.7 302.1 211.4C302.1 211.2 302.4 210.8 302.7 210.8ZM294.2 236C295.6 236 296.8 237.2 296.8 238.5C296.8 239.9 295.6 241 294.2 241C292.8 241 291.6 239.8 291.6 238.5C291.6 237.1 292.8 236 294.2 236ZM364 150.5C365.1 150.5 365.9 151.4 365.9 152.3C365.9 153.4 365 154.1 364 154.1C363 154.1 362.1 153.2 362.1 152.3C362 151.4 362.9 150.5 364 150.5ZM160 134.1C161.4 134.1 162.6 135.3 162.6 136.6C162.6 138 161.4 139.1 160 139.1C158.6 139.1 157.4 137.9 157.4 136.6C157.4 135.3 158.6 134.1 160 134.1ZM181 131.6C182.4 131.6 183.6 132.8 183.6 134.1C183.6 135.5 182.4 136.6 181 136.6C179.6 136.6 178.4 135.4 178.4 134.1C178.4 132.8 179.4 131.6 181 131.6ZM173.7 116.6C174.8 116.6 175.6 117.5 175.6 118.4C175.6 119.5 174.7 120.2 173.7 120.2C172.7 120.2 171.8 119.3 171.8 118.4C171.8 117.4 172.7 116.6 173.7 116.6ZM171.8 149.3C172.6 149.3 173.1 149.8 173.1 150.6C173.1 151.4 172.6 151.9 171.8 151.9C171 151.9 170.5 151.4 170.5 150.6C170.5 149.8 171 149.3 171.8 149.3ZM63.6 121.6C64.4 121.6 64.9 122.1 64.9 122.9C64.9 123.7 64.4 124.2 63.6 124.2C62.8 124.2 62.3 123.7 62.3 122.9C62.3 122.1 62.9 121.6 63.6 121.6ZM67.6 109C68.4 109 68.9 109.5 68.9 110.3C68.9 111.1 68.4 111.6 67.6 111.6C66.8 111.6 66.3 111.1 66.3 110.3C66.3 109.6 66.8 109 67.6 109ZM55.8 114.1C56.6 114.1 57.1 114.6 57.1 115.4C57.1 116.2 56.6 116.7 55.8 116.7C55 116.7 54.5 116.2 54.5 115.4C54.5 114.6 55.1 114.1 55.8 114.1ZM96.2 132.9C97 132.9 97.5 133.4 97.5 134.2C97.5 135 97 135.5 96.2 135.5C95.4 135.5 94.9 135 94.9 134.2C94.9 133.5 95.5 132.9 96.2 132.9ZM105.3 110.3C106.1 110.3 106.6 110.8 106.6 111.6C106.6 112.4 106.1 112.9 105.3 112.9C104.5 112.9 104 112.4 104 111.6C104 110.9 104.6 110.3 105.3 110.3ZM91 119.1C91.8 119.1 92.3 119.6 92.3 120.4C92.3 121.2 91.8 121.7 91 121.7C90.2 121.7 89.7 121.2 89.7 120.4C89.7 119.7 90.3 119.1 91 119.1ZM113.2 126.7C114 126.7 114.5 127.2 114.5 128C114.5 128.8 114 129.3 113.2 129.3C112.4 129.3 111.9 128.8 111.9 128C111.9 127.2 112.4 126.7 113.2 126.7ZM405 -2.80005C406.4 -2.80005 407.6 -1.60005 407.6 -0.300049C407.6 1.09995 406.4 2.19995 405 2.19995C403.6 2.19995 402.4 0.999951 402.4 -0.300049C402.4 -1.70005 403.6 -2.80005 405 -2.80005ZM421.3 4.69995C422.4 4.69995 423.2 5.59995 423.2 6.49995C423.2 7.59995 422.3 8.29995 421.3 8.29995C420.3 8.29995 419.4 7.39995 419.4 6.49995C419.3 5.49995 420.2 4.69995 421.3 4.69995ZM404.4 24.7C404.7 24.7 405 25 405 25.3C405 25.6 404.7 25.9 404.4 25.9C404.1 25.9 403.8 25.6 403.8 25.3C403.7 25.1 404 24.7 404.4 24.7ZM394.6 18.6C395.4 18.6 395.9 19.1 395.9 19.9C395.9 20.7 395.4 21.2 394.6 21.2C393.8 21.2 393.3 20.7 393.3 19.9C393.3 19 393.9 18.6 394.6 18.6ZM404.4 13.5C404.7 13.5 405 13.8 405 14.1C405 14.4 404.7 14.7 404.4 14.7C404.1 14.7 403.8 14.4 403.8 14.1C403.7 13.7 404 13.5 404.4 13.5ZM433 27.3C435.5 27.3 437.5 29.2 437.5 31.6C437.5 34 435.5 35.9 433 35.9C430.5 35.9 428.5 34 428.5 31.6C428.5 29.3 430.6 27.3 433 27.3ZM1647.2 634.9C1649.6 634.9 1651.6 636.7 1651.6 639.1C1651.6 641.4 1649.7 643.3 1647.2 643.3C1644.8 643.3 1642.8 641.5 1642.8 639.1C1642.8 636.8 1644.7 634.9 1647.2 634.9ZM1625 617.8C1626.6 617.8 1627.9 619.1 1627.9 620.6C1627.9 622.1 1626.6 623.4 1625 623.4C1623.4 623.4 1622.1 622.1 1622.1 620.6C1622.1 619.1 1623.5 617.8 1625 617.8ZM1647.2 602.2C1648.8 602.2 1650.1 603.5 1650.1 605C1650.1 606.5 1648.8 607.8 1647.2 607.8C1645.6 607.8 1644.3 606.5 1644.3 605C1644.3 603.5 1645.5 602.2 1647.2 602.2ZM1732.4 568.2C1734 568.2 1735.3 569.5 1735.3 571C1735.3 572.5 1734 573.8 1732.4 573.8C1730.8 573.8 1729.5 572.5 1729.5 571C1729.5 569.5 1730.8 568.2 1732.4 568.2ZM1729.5 529.9C1730.4 529.9 1731 530.5 1731 531.3C1731 532.2 1730.4 532.7 1729.5 532.7C1728.6 532.7 1728 532.1 1728 531.3C1728 530.6 1728.6 529.9 1729.5 529.9ZM1416.3 665.2C1416.9 665.2 1417.5 665.7 1417.5 666.4C1417.5 667.1 1417 667.6 1416.3 667.6C1415.6 667.6 1415.1 667.1 1415.1 666.4C1415.1 665.7 1415.7 665.2 1416.3 665.2ZM1421 646.2C1421.6 646.2 1422.2 646.7 1422.2 647.3C1422.2 647.9 1421.7 648.4 1421 648.4C1420.3 648.4 1419.8 647.9 1419.8 647.3C1419.8 646.7 1420.4 646.2 1421 646.2ZM1399.4 648.5C1400.4 648.5 1401.1 649.2 1401.1 650.1C1401.1 651.1 1400.4 651.7 1399.4 651.7C1398.4 651.7 1397.7 651 1397.7 650.1C1397.7 649.1 1398.6 648.5 1399.4 648.5ZM1562.5 572.4C1564.6 572.4 1566.1 574 1566.1 575.9C1566.1 577.9 1564.4 579.4 1562.5 579.4C1560.4 579.4 1558.9 577.8 1558.9 575.9C1558.9 574.1 1560.6 572.4 1562.5 572.4ZM1542.7 589.5C1543.6 589.5 1544.2 590.1 1544.2 590.9C1544.2 591.8 1543.6 592.3 1542.7 592.3C1541.8 592.3 1541.2 591.7 1541.2 590.9C1541.2 590.1 1542 589.5 1542.7 589.5ZM1558.9 615C1560.5 615 1561.8 616.3 1561.8 617.8C1561.8 619.3 1560.5 620.6 1558.9 620.6C1557.3 620.6 1556 619.3 1556 617.8C1556 616.2 1557.3 615 1558.9 615ZM1258.3 613.6C1260.9 613.6 1262.9 615.6 1262.9 618C1262.9 620.5 1260.8 622.4 1258.3 622.4C1255.7 622.4 1253.7 620.4 1253.7 618C1253.6 615.6 1255.7 613.6 1258.3 613.6ZM1292.5 583.3C1294.7 583.3 1296.5 585 1296.5 587.2C1296.5 589.3 1294.7 591.1 1292.5 591.1C1290.3 591.1 1288.5 589.4 1288.5 587.2C1288.5 585.1 1290.2 583.3 1292.5 583.3ZM1260.6 591.2C1262.5 591.2 1264.1 592.7 1264.1 594.6C1264.1 596.4 1262.5 598 1260.6 598C1258.7 598 1257.1 596.5 1257.1 594.6C1257 592.7 1258.6 591.2 1260.6 591.2ZM1289 611.3C1290 611.3 1290.7 612 1290.7 612.9C1290.7 613.9 1290 614.5 1289 614.5C1288 614.5 1287.3 613.8 1287.3 612.9C1287.3 612 1288 611.3 1289 611.3ZM1335 597.9C1336.3 597.9 1337.3 599 1337.3 600.1C1337.3 601.3 1336.2 602.3 1335 602.3C1333.7 602.3 1332.7 601.2 1332.7 600.1C1332.7 599 1333.7 597.9 1335 597.9ZM1337.3 652.9C1338.6 652.9 1339.6 654 1339.6 655.1C1339.6 656.3 1338.5 657.3 1337.3 657.3C1336 657.3 1335 656.2 1335 655.1C1335 654 1336 652.9 1337.3 652.9ZM1370.4 622.6C1370.8 622.6 1371 622.8 1371 623.2C1371 623.6 1370.8 623.8 1370.4 623.8C1370 623.8 1369.8 623.6 1369.8 623.2C1369.8 622.8 1370.1 622.6 1370.4 622.6ZM1194.8 630.5C1195.2 630.5 1195.4 630.7 1195.4 631.1C1195.4 631.5 1195.2 631.7 1194.8 631.7C1194.4 631.7 1194.2 631.5 1194.2 631.1C1194.2 630.7 1194.5 630.5 1194.8 630.5ZM1308.8 559.7C1309.8 559.7 1310.5 560.4 1310.5 561.3C1310.5 562.3 1309.8 562.9 1308.8 562.9C1307.8 562.9 1307.1 562.2 1307.1 561.3C1307.1 560.4 1307.9 559.7 1308.8 559.7ZM1704.4 434.8C1705.3 434.8 1705.9 435.4 1705.9 436.2C1705.9 437.1 1705.3 437.6 1704.4 437.6C1703.5 437.6 1702.9 437 1702.9 436.2C1703 435.4 1703.7 434.8 1704.4 434.8ZM1661.1 437.8C1662.3 437.8 1663.3 438.8 1663.3 439.9C1663.3 441 1662.3 442 1661.1 442C1659.9 442 1658.9 441 1658.9 439.9C1659 438.7 1659.9 437.8 1661.1 437.8ZM1668.4 460.4C1668.8 460.4 1669.1 460.8 1669.1 461.1C1669.1 461.5 1668.7 461.8 1668.4 461.8C1668 461.8 1667.7 461.4 1667.7 461.1C1667.7 460.8 1668.1 460.4 1668.4 460.4ZM1658.8 488.8C1660.4 488.8 1661.7 490.1 1661.7 491.6C1661.7 493.1 1660.4 494.4 1658.8 494.4C1657.2 494.4 1655.9 493.1 1655.9 491.6C1655.9 490.1 1657.3 488.8 1658.8 488.8ZM1737.5 392.4C1738.7 392.4 1739.7 393.4 1739.7 394.5C1739.7 395.7 1738.7 396.6 1737.5 396.6C1736.3 396.6 1735.3 395.6 1735.3 394.5C1735.3 393.3 1736.3 392.4 1737.5 392.4ZM1507.4 373.8C1509 373.8 1510.3 375.1 1510.3 376.6C1510.3 378.1 1509 379.4 1507.4 379.4C1505.8 379.4 1504.5 378.1 1504.5 376.6C1504.5 375.1 1505.9 373.8 1507.4 373.8ZM1531 371C1532.6 371 1533.9 372.3 1533.9 373.8C1533.9 375.3 1532.6 376.6 1531 376.6C1529.4 376.6 1528.1 375.3 1528.1 373.8C1528.1 372.3 1529.3 371 1531 371ZM1522.9 354C1524.1 354 1525.1 355 1525.1 356.1C1525.1 357.3 1524.1 358.2 1522.9 358.2C1521.7 358.2 1520.7 357.2 1520.7 356.1C1520.7 354.9 1521.7 354 1522.9 354ZM1520.7 390.9C1521.6 390.9 1522.2 391.5 1522.2 392.3C1522.2 393.2 1521.6 393.7 1520.7 393.7C1519.8 393.7 1519.2 393.1 1519.2 392.3C1519.2 391.5 1519.8 390.9 1520.7 390.9ZM1398.6 359.7C1399.5 359.7 1400.1 360.3 1400.1 361.1C1400.1 362 1399.5 362.5 1398.6 362.5C1397.7 362.5 1397.1 361.9 1397.1 361.1C1397.1 360.2 1397.9 359.7 1398.6 359.7ZM1403.1 345.6C1404 345.6 1404.6 346.2 1404.6 347C1404.6 347.8 1404 348.4 1403.1 348.4C1402.2 348.4 1401.6 347.8 1401.6 347C1401.6 346.2 1402.2 345.6 1403.1 345.6ZM1389.8 351.2C1390.7 351.2 1391.3 351.8 1391.3 352.6C1391.3 353.4 1390.7 354 1389.8 354C1388.9 354 1388.3 353.4 1388.3 352.6C1388.4 351.7 1389 351.2 1389.8 351.2ZM1435.4 372.4C1436.3 372.4 1436.9 373 1436.9 373.8C1436.9 374.7 1436.3 375.2 1435.4 375.2C1434.5 375.2 1433.9 374.6 1433.9 373.8C1434 373 1434.6 372.4 1435.4 372.4ZM1445.7 346.9C1446.6 346.9 1447.2 347.5 1447.2 348.3C1447.2 349.2 1446.6 349.7 1445.7 349.7C1444.8 349.7 1444.2 349.1 1444.2 348.3C1444.2 347.5 1444.9 346.9 1445.7 346.9ZM1429.5 356.8C1430.4 356.8 1431 357.4 1431 358.2C1431 359.1 1430.4 359.6 1429.5 359.6C1428.6 359.6 1428 359 1428 358.2C1428 357.5 1428.8 356.8 1429.5 356.8ZM1454.5 365.3C1455.4 365.3 1456 365.9 1456 366.7C1456 367.6 1455.4 368.1 1454.5 368.1C1453.6 368.1 1453 367.5 1453 366.7C1453.1 365.9 1453.7 365.3 1454.5 365.3ZM1783.9 219.2C1785.5 219.2 1786.8 220.5 1786.8 222C1786.8 223.5 1785.5 224.8 1783.9 224.8C1782.3 224.8 1781 223.5 1781 222C1780.9 220.5 1782.3 219.2 1783.9 219.2ZM1783.9 203.6C1784.8 203.6 1785.4 204.2 1785.4 205C1785.4 205.9 1784.8 206.4 1783.9 206.4C1783 206.4 1782.4 205.8 1782.4 205C1782.4 204.3 1783 203.6 1783.9 203.6ZM1802.2 227.8C1803.4 227.8 1804.4 228.8 1804.4 229.9C1804.4 231.1 1803.4 232 1802.2 232C1801 232 1800 231 1800 229.9C1800 228.7 1801 227.8 1802.2 227.8ZM1783.1 250.4C1783.5 250.4 1783.8 250.8 1783.8 251.1C1783.8 251.5 1783.4 251.8 1783.1 251.8C1782.7 251.8 1782.4 251.4 1782.4 251.1C1782.4 250.8 1782.8 250.4 1783.1 250.4ZM1772.1 243.3C1773 243.3 1773.6 243.9 1773.6 244.7C1773.6 245.5 1773 246.1 1772.1 246.1C1771.2 246.1 1770.6 245.5 1770.6 244.7C1770.6 243.9 1771.3 243.3 1772.1 243.3ZM1783.1 237.6C1783.5 237.6 1783.8 238 1783.8 238.3C1783.8 238.7 1783.4 239 1783.1 239C1782.7 239 1782.4 238.6 1782.4 238.3C1782.4 238 1782.8 237.6 1783.1 237.6ZM1815.5 253.4C1818.3 253.4 1820.6 255.6 1820.6 258.3C1820.6 261 1818.3 263.2 1815.5 263.2C1812.7 263.2 1810.4 261 1810.4 258.3C1810.4 255.6 1812.7 253.4 1815.5 253.4ZM1732.4 83C1733.3 83 1733.9 83.6 1733.9 84.4C1733.9 85.3 1733.3 85.7999 1732.4 85.7999C1731.5 85.7999 1730.9 85.2 1730.9 84.4C1731 83.7 1731.6 83 1732.4 83ZM1720.6 97.2C1722.2 97.2 1723.5 98.5 1723.5 100C1723.5 101.5 1722.2 102.8 1720.6 102.8C1719 102.8 1717.7 101.5 1717.7 100C1717.7 98.4 1719 97.2 1720.6 97.2ZM1717 78.7999C1718.2 78.7999 1719.2 79.8 1719.2 80.9C1719.2 82 1718.2 83 1717 83C1715.8 83 1714.8 82 1714.8 80.9C1714.8 79.8 1715.8 78.7999 1717 78.7999ZM1739 95.7999C1740.2 95.7999 1741.2 96.8 1741.2 97.9C1741.2 99.1 1740.2 100 1739 100C1737.8 100 1736.8 99 1736.8 97.9C1736.8 96.7 1737.8 95.7999 1739 95.7999ZM1751.5 78.7999C1752.4 78.7999 1753 79.4 1753 80.2C1753 81.1 1752.4 81.6 1751.5 81.6C1750.6 81.6 1750 81 1750 80.2C1750 79.5 1750.7 78.7999 1751.5 78.7999ZM1730.2 49C1731.4 49 1732.4 50 1732.4 51.1C1732.4 52.3 1731.4 53.2 1730.2 53.2C1729 53.2 1728 52.2 1728 51.1C1728 49.9 1729 49 1730.2 49ZM1697.9 59C1699.1 59 1700.1 60 1700.1 61.1C1700.1 62.2 1699.1 63.2 1697.9 63.2C1696.7 63.2 1695.7 62.2 1695.7 61.1C1695.7 59.9 1696.7 59 1697.9 59ZM1721.3 70.4C1721.7 70.4 1722 70.8 1722 71.1C1722 71.5 1721.6 71.7999 1721.3 71.7999C1720.9 71.7999 1720.6 71.4 1720.6 71.1C1720.6 70.6 1721 70.4 1721.3 70.4ZM1710.4 135.6C1711.3 135.6 1711.9 136.2 1711.9 137C1711.9 137.9 1711.3 138.4 1710.4 138.4C1709.5 138.4 1708.9 137.8 1708.9 137C1708.9 136.2 1709.6 135.6 1710.4 135.6ZM1727.3 134.1C1727.7 134.1 1728 134.5 1728 134.8C1728 135.1 1727.6 135.5 1727.3 135.5C1726.9 135.5 1726.6 135.1 1726.6 134.8C1726.6 134.4 1726.8 134.1 1727.3 134.1ZM1717 124.2C1717.4 124.2 1717.7 124.6 1717.7 124.9C1717.7 125.3 1717.3 125.6 1717 125.6C1716.7 125.6 1716.3 125.2 1716.3 124.9C1716.2 124.6 1716.6 124.2 1717 124.2ZM1432.8 37.9C1433.9 37.9 1434.6 38.8 1434.6 39.7C1434.6 40.8 1433.7 41.5 1432.8 41.5C1431.7 41.5 1431 40.6 1431 39.7C1430.9 38.6 1431.8 37.9 1432.8 37.9ZM1434.2 22C1434.9 22 1435.7 22.6 1435.7 23.4C1435.7 24.3 1435.1 24.8 1434.2 24.8C1433.3 24.8 1432.7 24.2 1432.7 23.4C1432.8 22.7 1433.5 22 1434.2 22ZM1419.1 27.6C1419.8 27.6 1420.6 28.2 1420.6 29C1420.6 29.9 1420 30.4 1419.1 30.4C1418.4 30.4 1417.6 29.8 1417.6 29C1417.6 28.2 1418.4 27.6 1419.1 27.6ZM1444.1 33.1C1444.6 33.1 1445.1 33.6 1445.1 34.1C1445.1 34.6 1444.7 35.1 1444.1 35.1C1443.6 35.1 1443.1 34.6 1443.1 34.1C1443.2 33.5 1443.6 33.1 1444.1 33.1ZM1441.3 61.7999C1441.8 61.7999 1442.3 62.2999 1442.3 62.7999C1442.3 63.2999 1441.9 63.7999 1441.3 63.7999C1440.7 63.7999 1440.3 63.2999 1440.3 62.7999C1440.3 62.2999 1440.8 61.7999 1441.3 61.7999ZM1423.4 60.9C1424.5 60.9 1425.2 61.8 1425.2 62.7C1425.2 63.6 1424.3 64.5 1423.4 64.5C1422.5 64.5 1421.6 63.6 1421.6 62.7C1421.6 61.8 1422.3 60.9 1423.4 60.9ZM1463.9 58.1C1464.4 58.1 1464.9 58.6 1464.9 59.1C1464.9 59.6 1464.5 60.1 1463.9 60.1C1463.4 60.1 1462.9 59.6 1462.9 59.1C1462.9 58.6 1463.3 58.1 1463.9 58.1ZM1300.1 202.2C1301.7 202.2 1303 203.5 1303 205C1303 206.5 1301.7 207.8 1300.1 207.8C1298.5 207.8 1297.2 206.5 1297.2 205C1297.2 203.5 1298.5 202.2 1300.1 202.2ZM1155.2 117.2C1156.4 117.2 1157.4 118.2 1157.4 119.3C1157.4 120.5 1156.4 121.4 1155.2 121.4C1154 121.4 1153 120.4 1153 119.3C1153 118.2 1154 117.2 1155.2 117.2ZM1160 94.6C1161.5 94.6 1162.7 95.8 1162.7 97.2C1162.7 98.6 1161.5 99.7999 1160 99.7999C1158.5 99.7999 1157.3 98.6 1157.3 97.2C1157.3 95.8 1158.5 94.6 1160 94.6ZM1170.1 112.1C1170.7 112.1 1171.2 112.6 1171.2 113.2C1171.2 113.8 1170.7 114.3 1170.1 114.3C1169.5 114.3 1169 113.8 1169 113.2C1169 112.6 1169.5 112.1 1170.1 112.1ZM1173.2 93.5C1174.4 93.5 1175.4 94.5 1175.4 95.5C1175.4 96.6 1174.4 97.5 1173.2 97.5C1172 97.5 1171 96.5 1171 95.5C1171.1 94.5 1172.2 93.5 1173.2 93.5ZM1184.4 106.9C1185.3 106.9 1186 107.6 1186 108.4C1186 109.3 1185.3 109.9 1184.4 109.9C1183.5 109.9 1182.8 109.2 1182.8 108.4C1182.8 107.6 1183.6 106.9 1184.4 106.9ZM1248.3 53.5C1249.8 53.5 1251 54.7 1251 56.1C1251 57.5 1249.8 58.7 1248.3 58.7C1246.8 58.7 1245.6 57.5 1245.6 56.1C1245.6 54.7 1246.8 53.5 1248.3 53.5ZM1241.8 39.1C1242.7 39.1 1243.4 39.8 1243.4 40.6C1243.4 41.5 1242.7 42.1 1241.8 42.1C1240.9 42.1 1240.2 41.4 1240.2 40.6C1240.2 39.8 1241 39.1 1241.8 39.1ZM1264.7 44.2C1265.9 44.2 1266.8 45.2 1266.8 46.3C1266.8 47.5 1265.8 48.4 1264.7 48.4C1263.5 48.4 1262.6 47.4 1262.6 46.3C1262.6 45.1 1263.6 44.2 1264.7 44.2ZM1271.1 57.5C1271.7 57.5 1272.2 58 1272.2 58.6C1272.2 59.2 1271.7 59.7 1271.1 59.7C1270.5 59.7 1270 59.2 1270 58.6C1270 58 1270.5 57.5 1271.1 57.5Z" fill="white"/>
</g>
<defs>
<radialGradient id="paint0_radial" cx="0" cy="0" r="1" gradientUnits="userSpaceOnUse" gradientTransform="translate(21 11.5002) rotate(30.0655) scale(2537.98 2162.4)">
<stop stop-color="#18A09F"/>
<stop offset="0.595022" stop-color="#CFDFF8"/>
<stop offset="1" stop-color="#C1E0E2"/>
</radialGradient>
<clipPath id="clip0">
<rect width="1920" height="802" fill="white"/>
</clipPath>
</defs>
</svg>
