<svg width="125" height="158" viewBox="0 0 125 158" fill="none" xmlns="http://www.w3.org/2000/svg">
<path d="M57.5045 105.38L78.2992 107.146C81.1688 107.39 83.6956 105.259 83.9393 102.389C84.183 99.5194 82.0518 96.9926 79.1821 96.7489L63.5861 95.4245L64.9106 79.8285C65.1543 76.9588 63.0231 74.432 60.1534 74.1883C57.2838 73.9446 54.757 76.0758 54.5133 78.9455L52.7473 99.7402C52.5036 102.61 54.6348 105.137 57.5045 105.38Z" fill="white"/>
<path d="M81.3782 10.2028C81.5809 7.81512 79.8077 5.71276 77.4201 5.50999C67.4023 4.65925 62.3533 17.4979 58.4043 26.7878C55.6425 33.2828 51.4689 43.0968 48.1124 42.8118C45.494 42.5894 44.4542 34.7579 44.8889 29.4681C45.2264 25.4944 40.4538 23.21 37.5686 25.9594C22.5794 40.2484 6.92275 66.1246 4.77532 91.4112C2.16359 122.165 25.004 149.765 56.2309 152.417C87.2357 155.05 114.604 131.967 117.237 100.962C120.308 64.7953 79.3738 33.8053 81.3782 10.2028ZM57.7002 135.116C36.2344 133.293 20.2542 114.346 22.0771 92.8805C23.9001 71.4148 42.8464 55.4345 64.3122 57.2575C85.778 59.0804 101.758 78.0267 99.9353 99.4925C98.1123 120.958 79.166 136.939 57.7002 135.116Z" fill="white"/>
</svg>
