<svg width="85" height="107" viewBox="0 0 85 107" fill="none" xmlns="http://www.w3.org/2000/svg">
<path d="M39.103 71.6586L53.2434 72.8594C55.1948 73.0252 56.913 71.5759 57.0787 69.6246C57.2444 67.6732 55.7952 65.955 53.8438 65.7893L43.2386 64.8886L44.1392 54.2833C44.3049 52.332 42.8557 50.6138 40.9043 50.448C38.953 50.2823 37.2347 51.7315 37.069 53.6829L35.8682 67.8233C35.7025 69.7747 37.1517 71.4929 39.103 71.6586Z" fill="white"/>
<path d="M55.3372 6.93788C55.475 5.31428 54.2692 3.88467 52.6456 3.74679C45.8336 3.16829 42.4002 11.8986 39.7149 18.2157C37.8369 22.6323 34.9989 29.3058 32.7164 29.112C30.9359 28.9608 30.2289 23.6354 30.5245 20.0383C30.7539 17.3362 27.5086 15.7828 25.5466 17.6524C15.354 27.3689 4.70747 44.9647 3.24722 62.1596C1.47124 83.0723 17.0027 101.841 38.237 103.644C59.3203 105.434 77.9307 89.7373 79.7212 68.654C81.8097 44.0608 53.9742 22.9876 55.3372 6.93788ZM39.2361 91.8786C24.6394 90.639 13.7728 77.7555 15.0124 63.1587C16.2521 48.562 29.1356 37.6955 43.7323 38.9351C58.329 40.1747 69.1956 53.0582 67.956 67.6549C66.7164 82.2516 53.8329 93.1182 39.2361 91.8786Z" fill="white"/>
</svg>
