<svg width="493" height="109" viewBox="0 0 493 109" fill="none" xmlns="http://www.w3.org/2000/svg">
<path d="M452.097 63.0931L464.498 64.1463C466.21 64.2916 467.717 63.0206 467.862 61.3092C468.007 59.5978 466.736 58.0908 465.025 57.9455L455.724 57.1556L456.514 47.8544C456.659 46.143 455.388 44.6361 453.677 44.4907C451.965 44.3454 450.458 45.6164 450.313 47.3278L449.26 59.7294C449.114 61.4408 450.385 62.9478 452.097 63.0931Z" fill="white"/>
<path d="M466.335 6.33074C466.456 4.90679 465.398 3.65297 463.974 3.53204C458 3.02467 454.988 10.6814 452.633 16.2218C450.986 20.0953 448.497 25.9482 446.495 25.7782C444.934 25.6456 444.314 20.975 444.573 17.8203C444.774 15.4504 441.928 14.088 440.207 15.7277C431.268 24.2495 421.931 39.6816 420.65 54.7621C419.092 73.1033 432.714 89.5637 451.337 91.1452C469.828 92.7155 486.15 78.9488 487.72 60.458C489.552 38.8888 465.139 20.4069 466.335 6.33074ZM452.213 80.8267C439.412 79.7395 429.881 68.4403 430.968 55.6384C432.056 42.8366 443.355 33.3062 456.157 34.3934C468.959 35.4806 478.489 46.7799 477.402 59.5817C476.315 72.3835 465.015 81.9139 452.213 80.8267Z" fill="white"/>
<path d="M41.7551 29.6018C46.5206 29.6018 50.7096 30.7093 54.3222 32.9244C58.0116 35.063 60.8556 38.1565 62.854 42.2047C64.8524 46.2529 65.8517 51.0649 65.8517 56.6407C65.8517 62.7512 64.6987 68.2125 62.3928 73.0245C60.0869 77.8365 56.8587 81.5792 52.7081 84.2525C48.6343 86.9258 43.9073 88.2625 38.5268 88.2625C31.686 88.2625 26.1903 85.8565 22.0397 81.0445L20.5409 100.063C20.3872 102.737 19.3111 104.875 17.3126 106.479C15.3911 108.16 12.9314 109 9.93378 109C6.7824 109 4.28435 108.122 2.43963 106.365C0.671783 104.684 -0.135279 102.469 0.0184471 99.7197L4.86082 39.2258C5.01455 36.3997 6.0522 34.1465 7.97377 32.4661C9.89535 30.7093 12.3934 29.8309 15.4679 29.8309C18.1581 29.8309 20.3103 30.4802 21.9244 31.7786C23.6154 33.0771 24.5762 34.8721 24.8068 37.1635C26.6515 34.7193 28.9958 32.848 31.8398 31.5495C34.7606 30.251 38.0657 29.6018 41.7551 29.6018ZM34.0304 73.2536C37.6429 73.2536 40.4484 71.8788 42.4469 69.129C44.5222 66.3793 45.5598 62.6748 45.5598 58.0156C45.5598 53.7382 44.599 50.4538 42.6774 48.1624C40.7559 45.7946 38.0272 44.6107 34.4915 44.6107C31.0327 44.6107 28.3041 45.9855 26.3056 48.7353C24.3072 51.485 23.308 55.0749 23.308 59.505C23.308 64.0115 24.2303 67.4486 26.075 69.8165C27.9197 72.1079 30.5715 73.2536 34.0304 73.2536Z" fill="white"/>
<path d="M103.899 88.2625C97.5961 88.2625 92.1004 87.1168 87.4118 84.8254C82.7231 82.5339 79.1105 79.2877 76.5741 75.0868C74.0376 70.8094 72.7693 65.8828 72.7693 60.307C72.7693 53.9674 74.076 48.5061 76.6894 43.9232C79.3027 39.264 82.9537 35.7123 87.6423 33.2681C92.4079 30.8239 97.942 29.6018 104.245 29.6018C110.548 29.6018 116.043 30.7475 120.732 33.0389C125.421 35.3304 129.033 38.5766 131.57 42.7775C134.106 46.9785 135.374 51.8669 135.374 57.4427C135.374 63.8587 134.068 69.3964 131.454 74.0556C128.841 78.6385 125.152 82.152 120.386 84.5962C115.697 87.0404 110.202 88.2625 103.899 88.2625ZM103.553 73.2536C107.627 73.2536 110.548 71.726 112.315 68.6707C114.16 65.6155 115.082 61.7201 115.082 56.9844C115.082 52.7835 114.199 49.69 112.431 47.7041C110.74 45.6418 108.126 44.6107 104.591 44.6107C100.517 44.6107 97.5577 46.1383 95.713 49.1935C93.9451 52.1724 93.0612 55.9915 93.0612 60.6507C93.0612 64.9281 93.9067 68.0979 95.5977 70.1602C97.3655 72.2225 100.017 73.2536 103.553 73.2536Z" fill="white"/>
<path d="M218.572 29.6018C224.567 29.6018 229.141 31.3585 232.292 34.8721C235.443 38.3856 237.019 43.5795 237.019 50.4538C237.019 52.1342 236.981 53.3945 236.904 54.2347L234.829 78.6385C234.598 81.7701 233.483 84.1379 231.485 85.7419C229.487 87.2696 226.988 88.0334 223.991 88.0334C221.07 88.0334 218.649 87.2314 216.727 85.6274C214.883 84.0234 214.075 81.6937 214.306 78.6385L216.381 54.693C216.612 51.6377 216.189 49.3081 215.113 47.7041C214.037 46.0237 212.384 45.1835 210.155 45.1835C207.388 45.1835 205.236 46.1383 203.699 48.0478C202.239 49.881 201.316 52.9362 200.932 57.2136L199.202 78.6385C198.895 81.7701 197.704 84.1379 195.628 85.7419C193.63 87.2696 191.17 88.0334 188.249 88.0334C185.329 88.0334 182.908 87.2314 180.986 85.6274C179.141 84.0234 178.373 81.6937 178.68 78.6385L180.64 54.9221C181.101 48.4297 179.026 45.1835 174.414 45.1835C171.647 45.1835 169.495 46.1383 167.958 48.0478C166.497 49.9574 165.575 53.0126 165.191 57.2136L163.461 78.6385C163.231 81.6937 162.078 84.0234 160.002 85.6274C158.004 87.2314 155.544 88.0334 152.623 88.0334C149.703 88.0334 147.281 87.2314 145.36 85.6274C143.515 84.0234 142.708 81.6937 142.939 78.6385L146.167 39.1112C146.474 36.1324 147.704 33.8409 149.856 32.2369C152.009 30.6329 154.507 29.8309 157.351 29.8309C159.733 29.8309 161.732 30.442 163.346 31.6641C164.96 32.8098 165.882 34.452 166.113 36.5907C168.342 34.2228 170.84 32.4661 173.607 31.3204C176.451 30.1746 179.679 29.6018 183.292 29.6018C186.981 29.6018 190.171 30.3656 192.861 31.8932C195.628 33.4208 197.742 35.5977 199.202 38.4238C201.662 35.5213 204.544 33.3445 207.85 31.8932C211.155 30.3656 214.729 29.6018 218.572 29.6018Z" fill="white"/>
<path d="M276.503 88.2625C270.2 88.2625 264.705 87.1168 260.016 84.8254C255.327 82.5339 251.715 79.2877 249.178 75.0868C246.642 70.8094 245.373 65.8828 245.373 60.307C245.373 53.9674 246.68 48.5061 249.293 43.9232C251.907 39.264 255.558 35.7123 260.246 33.2681C265.012 30.8239 270.546 29.6018 276.849 29.6018C283.152 29.6018 288.647 30.7475 293.336 33.0389C298.025 35.3304 301.637 38.5766 304.174 42.7775C306.71 46.9785 307.978 51.8669 307.978 57.4427C307.978 63.8587 306.672 69.3964 304.058 74.0556C301.445 78.6385 297.756 82.152 292.99 84.5962C288.301 87.0404 282.806 88.2625 276.503 88.2625ZM276.157 73.2536C280.231 73.2536 283.152 71.726 284.919 68.6707C286.764 65.6155 287.687 61.7201 287.687 56.9844C287.687 52.7835 286.803 49.69 285.035 47.7041C283.344 45.6418 280.73 44.6107 277.195 44.6107C273.121 44.6107 270.162 46.1383 268.317 49.1935C266.549 52.1724 265.665 55.9915 265.665 60.6507C265.665 64.9281 266.511 68.0979 268.202 70.1602C269.97 72.2225 272.621 73.2536 276.157 73.2536Z" fill="white"/>
<path d="M325.343 88.0334C322.191 88.0334 319.54 86.964 317.388 84.8254C315.312 82.6867 314.275 80.0515 314.275 76.9199C314.275 73.7883 315.312 71.1531 317.388 69.0145C319.54 66.8758 322.191 65.8064 325.343 65.8064C328.571 65.8064 331.223 66.8758 333.298 69.0145C335.45 71.1531 336.526 73.7883 336.526 76.9199C336.526 80.0515 335.45 82.6867 333.298 84.8254C331.223 86.964 328.571 88.0334 325.343 88.0334Z" fill="white"/>
<path d="M402.067 6C405.218 6 407.678 6.87838 409.446 8.63515C411.291 10.3155 412.136 12.5306 411.982 15.2803L407.025 78.6385C406.794 81.4646 405.718 83.756 403.796 85.5128C401.875 87.1932 399.377 88.0334 396.302 88.0334C393.612 88.0334 391.46 87.3841 389.846 86.0857C388.232 84.7108 387.271 82.9158 386.963 80.7008C385.119 83.145 382.736 85.0163 379.815 86.3148C376.971 87.6133 373.743 88.2625 370.13 88.2625C365.365 88.2625 361.137 87.1932 357.448 85.0545C353.835 82.8394 350.991 79.7078 348.916 75.6596C346.918 71.6114 345.918 66.7994 345.918 61.2236C345.918 55.1131 347.071 49.6518 349.377 44.8398C351.683 40.0278 354.873 36.2851 358.947 33.6118C363.097 30.9385 367.863 29.6018 373.243 29.6018C380.238 29.6018 385.734 32.0078 389.73 36.8198L391.46 14.822C391.614 12.2251 392.651 10.1246 394.573 8.52058C396.571 6.84019 399.069 6 402.067 6ZM377.279 73.2536C380.737 73.2536 383.466 71.8788 385.465 69.129C387.463 66.3793 388.462 62.7894 388.462 58.3593C388.462 53.8528 387.54 50.4538 385.695 48.1624C383.85 45.7946 381.199 44.6107 377.74 44.6107C374.204 44.6107 371.399 45.9855 369.323 48.7353C367.248 51.485 366.21 55.1895 366.21 59.8487C366.21 64.1261 367.171 67.4486 369.093 69.8165C371.014 72.1079 373.743 73.2536 377.279 73.2536Z" fill="white"/>
</svg>
